<svg width="128" height="128" viewBox="0 0 128 128" fill="none" xmlns="http://www.w3.org/2000/svg">
<rect width="128" height="128" rx="64" fill="url(#paint0_radial)"/>
<path fill-rule="evenodd" clip-rule="evenodd" d="M63.4903 44.6461C58.5356 39.6903 51.6901 36.625 44.1286 36.625C29.0078 36.625 16.75 48.8828 16.75 64.0036C16.75 79.1244 29.0078 91.3823 44.1286 91.3823C51.688 91.3823 58.5317 88.3187 63.4861 83.3654L57.4362 77.3154C54.0301 80.7204 49.3253 82.8264 44.1286 82.8264C33.733 82.8264 25.3058 74.3991 25.3058 64.0036C25.3058 53.608 33.733 45.1808 44.1286 45.1808C49.3274 45.1808 54.034 47.2885 57.4404 50.696L63.4903 44.6461Z" fill="#DAE1E7"/>
<path fill-rule="evenodd" clip-rule="evenodd" d="M111.24 44.6461C106.286 39.6903 99.4401 36.625 91.8786 36.625C76.7578 36.625 64.5 48.8828 64.5 64.0036C64.5 79.1244 76.7578 91.3823 91.8786 91.3823C99.438 91.3823 106.282 88.3187 111.236 83.3654L105.186 77.3154C101.78 80.7204 97.0753 82.8264 91.8786 82.8264C81.483 82.8264 73.0558 74.3991 73.0558 64.0036C73.0558 53.608 81.483 45.1808 91.8786 45.1808C97.0774 45.1808 101.784 47.2885 105.19 50.696L111.24 44.6461Z" fill="#DAE1E7"/>
<defs>
<radialGradient id="paint0_radial" cx="0" cy="0" r="1" gradientUnits="userSpaceOnUse" gradientTransform="translate(64 64) rotate(90) scale(83.0625)">
<stop stop-color="#00909E"/>
<stop offset="1" stop-color="#142850"/>
<stop offset="1" stop-color="#142850"/>
</radialGradient>
</defs>
</svg>
