<svg width="1024" height="1024" viewBox="0 0 1024 1024" fill="none" xmlns="http://www.w3.org/2000/svg">
<rect width="1024" height="1024" rx="512" fill="url(#paint0_radial)"/>
<path fill-rule="evenodd" clip-rule="evenodd" d="M507.924 357.17C468.286 317.523 413.521 293 353.029 293C232.063 293 134 391.063 134 512.029C134 632.996 232.063 731.058 353.029 731.058C413.502 731.058 468.252 706.55 507.887 666.925L459.49 618.529C432.241 645.77 394.602 662.618 353.028 662.618C269.863 662.618 202.445 595.2 202.445 512.036C202.445 428.871 269.863 361.453 353.028 361.453C394.618 361.453 432.27 378.314 459.521 405.573L507.924 357.17Z" fill="#DAE1E7"/>
<path fill-rule="evenodd" clip-rule="evenodd" d="M889.924 357.17C850.286 317.523 795.521 293 735.029 293C614.063 293 516 391.063 516 512.029C516 632.996 614.063 731.058 735.029 731.058C795.502 731.058 850.252 706.55 889.887 666.925L841.49 618.529C814.241 645.77 776.602 662.618 735.028 662.618C651.863 662.618 584.445 595.2 584.445 512.036C584.445 428.871 651.863 361.453 735.028 361.453C776.618 361.453 814.27 378.314 841.521 405.573L889.924 357.17Z" fill="#DAE1E7"/>
<defs>
<radialGradient id="paint0_radial" cx="0" cy="0" r="1" gradientUnits="userSpaceOnUse" gradientTransform="translate(512 512) rotate(90) scale(664.5)">
<stop stop-color="#00909E"/>
<stop offset="1" stop-color="#142850"/>
</radialGradient>
</defs>
</svg>
